<svg width="35" height="35" viewBox="0 0 35 35" fill="none" xmlns="http://www.w3.org/2000/svg">
<path d="M29.1665 5.83329V23.3333H11.6665V5.83329H29.1665ZM29.1665 2.91663H11.6665C10.0623 2.91663 8.74984 4.22913 8.74984 5.83329V23.3333C8.74984 24.9375 10.0623 26.25 11.6665 26.25H29.1665C30.7707 26.25 32.0832 24.9375 32.0832 23.3333V5.83329C32.0832 4.22913 30.7707 2.91663 29.1665 2.91663ZM18.1853 20.4166L13.1248 15.3125L15.1665 13.2562L18.1853 16.2895L25.6665 8.74996L27.7082 10.8062L18.1853 20.4166ZM5.83317 8.74996H2.9165V29.1666C2.9165 30.7708 4.229 32.0833 5.83317 32.0833H26.2498V29.1666H5.83317V8.74996Z" fill="#4F8FF0"/>
</svg>
